<?xml version="1.0" encoding="UTF-8"?> <svg xmlns="http://www.w3.org/2000/svg" id="Layer_2" viewBox="0 0 39.17 24.18"><defs><style>.cls-1{fill:#fff;}</style></defs><g id="Layer_5"><path class="cls-1" d="M31.93,14.53c-.17.21-.25.32-.34.42-1.29,1.51-2.59,3.03-3.88,4.54-.82.97-.95,2.6-.3,3.74.64,1.13,1.76,1.27,2.59.31.79-.91,1.57-1.83,2.35-2.75,2.03-2.38,4.07-4.75,6.1-7.14.97-1.15.96-3.12-.05-4.16-2.92-3.03-5.85-6.03-8.78-9.03-.36-.37-.78-.53-1.23-.43-.79.17-1.41.93-1.56,1.96-.16,1.14.08,2.09.75,2.78.97,1,1.94,2,2.91,2.99.47.48.93.96,1.4,1.45,0,.04-.01.07-.02.11-.13,0-.26,0-.39,0-9.76,0-19.53,0-29.29,0-.22,0-.43,0-.65.03-.94.15-1.67,1.54-1.53,2.87.16,1.45.88,2.31,1.96,2.31,9.82,0,19.64,0,29.46,0h.5Z"></path></g></svg> 